# xmcd
#
# Track frame offsets:
# 150
# 12033
# 27005
# 40786
# 54376
# 76288
# 101963
# 119292
# 130572
# 149737
#
# Disc length: 2267 seconds
#
#
# Revision: 0
# Processed by: cddbd v1.5.1PL2 Copyright (c) Steve Scherf et al.
# Submitted via: FreeRIP 2.941 
#
DISCID=7b08d90a
DTITLE=Monti Amundson - Somebody's Happened To Our Love
DYEAR=2006
DGENRE=Blues
TTITLE0=Hello Sundown
TTITLE1=Somebody's Happened To Our Love
TTITLE2=Let Me Know
TTITLE3=Red Room
TTITLE4=On A Roll
TTITLE5=Plain As Day
TTITLE6=Six Shots
TTITLE7=What's It Coming To
TTITLE8=Woe To Me
TTITLE9=Thinking About Crying
EXTD=Featuring Boyd Small
EXTT0=
EXTT1=
EXTT2=
EXTT3=
EXTT4=
EXTT5=
EXTT6=
EXTT7=
EXTT8=
EXTT9=
PLAYORDER=
